<svg className="social-svg" viewBox="0 0 600 600" xmlns="http://www.w3.org/2000/svg">
    <title>
        Mail
    </title>
    <g className="social-group" fill="none" fillRule="evenodd">
        <circle className="social-group__outline" stroke="#000" strokeWidth="20" cx="300" cy="300" r="262.5" />
        <circle className="social-group__inner-circle" fill="#DA5988" cx="300" cy="300" r="252.5" />
        <path width='200' height="200" className="social-group__icon" fillRule="nonzero" d="M0 4a2 2 0 0 1 2-2h12a2 2 0 0 1 2 2v8a2 2 0 0 1-2 2H2a2 2 0 0 1-2-2V4Zm2-1a1 1 0 0 0-1 1v.217l7 4.2 7-4.2V4a1 1 0 0 0-1-1H2Zm13 2.383-4.708 2.825L15 11.105V5.383Zm-.034 6.876-5.64-3.471L8 9.583l-1.326-.795-5.64 3.47A1 1 0 0 0 2 13h12a1 1 0 0 0 .966-.741ZM1 11.105l4.708-2.897L1 5.383v5.722Z" fill="#000"></path>
    </g>
</svg>