<?xml version="1.0" encoding="utf-8"?>
<svg viewBox="0 0 600 600" xmlns="http://www.w3.org/2000/svg">
  <g classname="social-group" fill="none" fillrule="evenodd" transform="matrix(0.9999999999999999, 0, 0, 0.9999999999999999, 0, -7.105427357601002e-15)">
    <circle classname="social-group__outline" stroke="#000" strokewidth="20" cx="300" cy="300" r="262.5"/>
    <circle classname="social-group__inner-circle" fill="#DA5988" cx="300" cy="300" r="252.5"/>
    <path width="200" height="200" classname="social-group__icon" fillrule="nonzero" d="M 136.634 216.076 C 136.634 194.897 155.25 177.734 178.216 177.734 L 427.713 177.734 C 450.679 177.734 469.295 194.897 469.295 216.076 L 469.295 369.435 C 469.295 390.609 450.679 407.777 427.713 407.777 L 178.216 407.777 C 155.25 407.777 136.634 390.609 136.634 369.435 L 136.634 216.076 Z M 178.216 196.905 C 166.735 196.905 157.424 205.488 157.424 216.076 L 157.424 220.235 L 302.966 300.752 L 448.507 220.235 L 448.507 216.076 C 448.507 205.488 439.199 196.905 427.713 196.905 L 178.216 196.905 Z M 448.507 242.59 L 350.62 296.744 L 448.507 352.281 L 448.507 242.59 Z M 447.803 374.4 L 330.534 307.861 L 302.966 323.105 L 275.395 307.861 L 158.135 374.384 C 160.558 382.77 168.803 388.606 178.216 388.606 L 427.713 388.606 C 437.122 388.611 445.363 382.782 447.803 374.4 Z M 157.424 352.281 L 255.309 296.744 L 157.424 242.59 L 157.424 352.281 Z" fill="#000" style=""/>
  </g>
</svg>